<svg width="32" height="32" viewBox="0 0 32 32" fill="none" xmlns="http://www.w3.org/2000/svg">
<path fill-rule="evenodd" clip-rule="evenodd" d="M15.9999 20.244L26.6059 30.85C27.1687 31.4128 27.932 31.729 28.7279 31.729C29.5238 31.729 30.2871 31.4128 30.8499 30.85C31.4127 30.2872 31.7289 29.5239 31.7289 28.728C31.7289 27.9321 31.4127 27.1688 30.8499 26.606L20.2399 16L30.8479 5.39401C31.1265 5.11534 31.3474 4.78454 31.4981 4.4205C31.6488 4.05646 31.7263 3.6663 31.7262 3.2723C31.7261 2.8783 31.6484 2.48818 31.4975 2.12421C31.3467 1.76023 31.1256 1.42954 30.8469 1.15101C30.5683 0.872473 30.2375 0.651554 29.8734 0.500863C29.5094 0.350172 29.1192 0.27266 28.7252 0.272753C28.3312 0.272846 27.9411 0.350541 27.5771 0.501404C27.2132 0.652266 26.8825 0.873342 26.6039 1.15201L15.9999 11.758L5.39394 1.15201C5.11733 0.865349 4.78641 0.636649 4.42047 0.479252C4.05453 0.321855 3.66091 0.238912 3.26258 0.235264C2.86425 0.231616 2.46917 0.307335 2.10041 0.458004C1.73166 0.608673 1.3966 0.831274 1.11479 1.11282C0.832978 1.39436 0.610061 1.72921 0.459045 2.09783C0.308028 2.46644 0.231936 2.86144 0.235209 3.25978C0.238481 3.65812 0.321052 4.05182 0.478104 4.4179C0.635156 4.78399 0.863543 5.11513 1.14994 5.39201L11.7599 16L1.15194 26.608C0.865544 26.8849 0.637157 27.216 0.480105 27.5821C0.323053 27.9482 0.240481 28.3419 0.237209 28.7402C0.233936 29.1386 0.310028 29.5336 0.461044 29.9022C0.612061 30.2708 0.834977 30.6056 1.11679 30.8872C1.3986 31.1687 1.73366 31.3913 2.10241 31.542C2.47117 31.6927 2.86625 31.7684 3.26458 31.7647C3.66291 31.7611 4.05653 31.6782 4.42247 31.5208C4.78841 31.3634 5.11933 31.1347 5.39594 30.848L15.9999 20.244Z" fill="#F1FAEE"/>
</svg>
