<svg width="37" height="33" viewBox="0 0 37 33" fill="none" xmlns="http://www.w3.org/2000/svg">
<path d="M33.5 26.8125C34.2223 26.8129 34.9167 27.0911 35.4395 27.5895C35.9622 28.088 36.2731 28.7684 36.3079 29.4898C36.3426 30.2113 36.0984 30.9184 35.6259 31.4648C35.1535 32.0111 34.4889 32.3547 33.77 32.4244L33.5 32.4375H3.5C2.77772 32.4371 2.08326 32.1589 1.56053 31.6605C1.03779 31.162 0.726852 30.4816 0.692142 29.7602C0.657432 29.0387 0.90161 28.3316 1.37408 27.7852C1.84655 27.2389 2.51109 26.8953 3.23 26.8256L3.5 26.8125H33.5ZM33.5 13.6875C34.2459 13.6875 34.9613 13.9838 35.4887 14.5113C36.0162 15.0387 36.3125 15.7541 36.3125 16.5C36.3125 17.2459 36.0162 17.9613 35.4887 18.4887C34.9613 19.0162 34.2459 19.3125 33.5 19.3125H3.5C2.75408 19.3125 2.03871 19.0162 1.51126 18.4887C0.983816 17.9613 0.6875 17.2459 0.6875 16.5C0.6875 15.7541 0.983816 15.0387 1.51126 14.5113C2.03871 13.9838 2.75408 13.6875 3.5 13.6875H33.5ZM33.5 0.5625C34.2459 0.5625 34.9613 0.858816 35.4887 1.38626C36.0162 1.91371 36.3125 2.62908 36.3125 3.375C36.3125 4.12092 36.0162 4.83629 35.4887 5.36374C34.9613 5.89118 34.2459 6.1875 33.5 6.1875H3.5C2.75408 6.1875 2.03871 5.89118 1.51126 5.36374C0.983816 4.83629 0.6875 4.12092 0.6875 3.375C0.6875 2.62908 0.983816 1.91371 1.51126 1.38626C2.03871 0.858816 2.75408 0.5625 3.5 0.5625H33.5Z" fill="#F1FAEE"/>
</svg>
